<svg width="50" height="50" viewBox="0 0 50 50" fill="none" xmlns="http://www.w3.org/2000/svg">
    <circle cx="25" cy="25" r="24" fill="#3797EF" stroke="white" stroke-width="2" />
    <path
        d="M34 23.5H26.5V16C26.5 15.172 25.828 14.5 25 14.5C24.172 14.5 23.5 15.172 23.5 16V23.5H16C15.172 23.5 14.5 24.172 14.5 25C14.5 25.828 15.172 26.5 16 26.5H23.5V34C23.5 34.828 24.172 35.5 25 35.5C25.828 35.5 26.5 34.828 26.5 34V26.5H34C34.828 26.5 35.5 25.828 35.5 25C35.5 24.172 34.828 23.5 34 23.5Z"
        fill="white" />
</svg>
