<svg width="24" height="24" viewBox="0 0 24 24" fill="none" xmlns="http://www.w3.org/2000/svg">
<circle cx="12" cy="12" r="12" fill="white"/>
<path d="M4.99999 18.5C4.94857 18.5072 4.8964 18.5072 4.84499 18.5C4.74056 18.4661 4.6502 18.3988 4.58785 18.3084C4.5255 18.218 4.49462 18.1097 4.49999 18V17.5C4.50019 15.2406 5.30566 13.0552 6.77184 11.3361C8.23802 9.617 10.2689 8.47675 12.5 8.12V6C12.5 5.90714 12.5258 5.81612 12.5747 5.73713C12.6235 5.65815 12.6933 5.59431 12.7764 5.55279C12.8594 5.51126 12.9524 5.49368 13.0449 5.50202C13.1374 5.51036 13.2257 5.54429 13.3 5.6L19.3 10.1C19.3621 10.1466 19.4125 10.207 19.4472 10.2764C19.4819 10.3458 19.5 10.4224 19.5 10.5C19.5 10.5776 19.4819 10.6542 19.4472 10.7236C19.4125 10.793 19.3621 10.8534 19.3 10.9L13.3 15.4C13.2257 15.4557 13.1374 15.4896 13.0449 15.498C12.9524 15.5063 12.8594 15.4887 12.7764 15.4472C12.6933 15.4057 12.6235 15.3419 12.5747 15.2629C12.5258 15.1839 12.5 15.0929 12.5 15V13.125C10.0788 13.5202 7.91067 14.853 6.46499 16.835L5.40499 18.295C5.35844 18.3587 5.29748 18.4105 5.22709 18.4461C5.1567 18.4817 5.07888 18.5002 4.99999 18.5ZM13.5 7V8.56C13.5007 8.68361 13.4557 8.80311 13.3735 8.89545C13.2913 8.98778 13.1778 9.0464 13.055 9.06C11.1696 9.26569 9.40725 10.096 8.04821 11.4188C6.68916 12.7416 5.81155 14.4809 5.55499 16.36L5.63499 16.255C6.49062 15.0801 7.58432 14.0989 8.84474 13.3752C10.1052 12.6515 11.504 12.2016 12.95 12.055C13.0197 12.0485 13.09 12.0567 13.1563 12.0791C13.2226 12.1015 13.2835 12.1376 13.335 12.185C13.3868 12.2317 13.4282 12.2888 13.4566 12.3525C13.4851 12.4163 13.4998 12.4852 13.5 12.555V14L18.165 10.5L13.5 7Z" fill="black"/>
</svg>
