<svg width="28" height="28" viewBox="0 0 28 28" fill="none" xmlns="http://www.w3.org/2000/svg">
    <rect x="0.7" y="0.7" width="26.6" height="26.6" rx="3.3" fill="#3797EF" stroke="#3797EF"
        stroke-width="1.4" />
    <path
        d="M21.5 12.75H15.25V6.5C15.25 5.81 14.69 5.25 14 5.25C13.31 5.25 12.75 5.81 12.75 6.5V12.75H6.5C5.81 12.75 5.25 13.31 5.25 14C5.25 14.69 5.81 15.25 6.5 15.25H12.75V21.5C12.75 22.19 13.31 22.75 14 22.75C14.69 22.75 15.25 22.19 15.25 21.5V15.25H21.5C22.19 15.25 22.75 14.69 22.75 14C22.75 13.31 22.19 12.75 21.5 12.75Z"
        fill="white" />
</svg>
