<svg width="26" height="26" viewBox="0 0 26 26" fill="none" xmlns="http://www.w3.org/2000/svg">
    <path
        d="M8.12498 7.31251C8.20114 7.38804 8.26159 7.47791 8.30283 7.57692C8.34408 7.67593 8.36532 7.78213 8.36532 7.88939C8.36532 7.99665 8.34408 8.10284 8.30283 8.20185C8.26159 8.30086 8.20114 8.39073 8.12498 8.46626L4.38749 12.2038H23.5137C23.7292 12.2038 23.9359 12.2894 24.0883 12.4417C24.2406 12.5941 24.3262 12.8008 24.3262 13.0163C24.3262 13.2318 24.2406 13.4384 24.0883 13.5908C23.9359 13.7432 23.7292 13.8288 23.5137 13.8288H4.40374L8.12498 17.5419C8.27631 17.6941 8.36125 17.9 8.36125 18.1147C8.36125 18.3294 8.27631 18.5353 8.12498 18.6875C7.97275 18.8388 7.76682 18.9238 7.55217 18.9238C7.33752 18.9238 7.13159 18.8388 6.97936 18.6875L1.81186 13.52C1.74231 13.4533 1.68697 13.3732 1.64916 13.2845C1.61136 13.1959 1.59187 13.1005 1.59187 13.0041C1.59187 12.9077 1.61136 12.8123 1.64916 12.7236C1.68697 12.635 1.74231 12.5549 1.81186 12.4881L6.97124 7.31251C7.04677 7.23636 7.13663 7.17591 7.23564 7.13466C7.33465 7.09341 7.44085 7.07217 7.54811 7.07217C7.65537 7.07217 7.76157 7.09341 7.86058 7.13466C7.95959 7.17591 8.04945 7.23636 8.12498 7.31251Z"
        fill="#262626" />
</svg>
