<svg width="20" height="20" viewBox="0 0 20 20" fill="none" xmlns="http://www.w3.org/2000/svg">
    <path fill-rule="evenodd" clip-rule="evenodd"
        d="M16.875 3.75C16.875 2.92125 16.5456 2.12625 15.96 1.54C15.3737 0.954375 14.5787 0.625 13.75 0.625C11.5712 0.625 8.42875 0.625 6.25 0.625C5.42125 0.625 4.62625 0.954375 4.04 1.54C3.45438 2.12625 3.125 2.92125 3.125 3.75C3.125 8.58625 3.125 18.75 3.125 18.75C3.125 19.0025 3.2775 19.2306 3.51063 19.3275C3.74438 19.4244 4.01312 19.3706 4.19187 19.1919L10 13.3837L15.8081 19.1919C15.9869 19.3706 16.2556 19.4244 16.4894 19.3275C16.7225 19.2306 16.875 19.0025 16.875 18.75V3.75ZM15.625 3.75V17.2413L10.4419 12.0581C10.1981 11.8137 9.80188 11.8137 9.55813 12.0581L4.375 17.2413V3.75C4.375 3.2525 4.5725 2.77562 4.92438 2.42437C5.27562 2.0725 5.7525 1.875 6.25 1.875C8.42875 1.875 11.5712 1.875 13.75 1.875C14.2475 1.875 14.7244 2.0725 15.0756 2.42437C15.4275 2.77562 15.625 3.2525 15.625 3.75Z"
        fill="black" />
</svg>
