<svg width="14" height="14" viewBox="0 0 14 14" fill="none" xmlns="http://www.w3.org/2000/svg">
<path d="M4.95833 11.0833H4.66667C2.33333 11.0833 1.16667 10.5 1.16667 7.58333V4.66666C1.16667 2.33333 2.33333 1.16666 4.66667 1.16666H9.33333C11.6667 1.16666 12.8333 2.33333 12.8333 4.66666V7.58333C12.8333 9.91667 11.6667 11.0833 9.33333 11.0833H9.04167C8.86083 11.0833 8.68583 11.1708 8.575 11.3167L7.7 12.4833C7.315 12.9967 6.685 12.9967 6.3 12.4833L5.425 11.3167C5.33167 11.1883 5.11583 11.0833 4.95833 11.0833Z" stroke="#3797EF" stroke-miterlimit="10" stroke-linecap="round" stroke-linejoin="round"/>
<path d="M9.33127 6.41666H9.338" stroke="#3797EF" stroke-width="1.5" stroke-linecap="round" stroke-linejoin="round"/>
<path d="M6.99737 6.41666H7.0041" stroke="#3797EF" stroke-width="1.5" stroke-linecap="round" stroke-linejoin="round"/>
<path d="M4.66346 6.41666H4.6702" stroke="#3797EF" stroke-width="1.5" stroke-linecap="round" stroke-linejoin="round"/>
</svg>
