<svg width="130" height="105" viewBox="0 0 130 105" fill="none" xmlns="http://www.w3.org/2000/svg">
<path d="M27.3044 43.783C23.5701 43.6567 20.636 46.8996 20.7203 51.041C20.8045 55.1262 23.7948 59.1413 27.4729 59.4221C31.2352 59.7028 34.2956 55.9545 34.2815 51.7851C34.2956 47.5454 31.1369 43.9234 27.3044 43.783Z" fill="#E6E6E5"/>
<path d="M47.94 38.1533C42.7457 38.055 38.843 43.502 40.8786 49.2298C42.858 54.8171 48.9508 56.951 53.05 52.585C56.1104 49.3421 56.4333 44.1197 53.3729 40.7083C51.9831 39.15 50.0458 38.1954 47.94 38.1533Z" fill="#E6E6E5"/>
<path d="M71.3561 45.3124C69.0398 45.2281 66.8919 46.0985 65.3055 47.5726C59.7041 52.809 63.7192 62.1446 70.4156 62.65C75.0623 63.001 79.1476 58.8877 79.4564 54.2409C79.7793 49.5239 76.1012 45.4808 71.3561 45.3124Z" fill="#E6E6E5"/>
<path d="M70.0085 66.1733C65.2635 65.7802 61.3187 69.1495 61.1221 73.7401L60.5325 88.2841L77.3086 90.6005L78.3334 75.523C78.6422 70.806 74.8799 66.5804 70.0085 66.1733Z" fill="#E6E6E5"/>
<path d="M47.6451 58.3251C43.3352 58.0303 39.8677 61.3855 39.8256 65.8217L39.6711 85.4056L54.7907 87.4973L55.4365 67.2115C55.5909 62.663 52.0813 58.6339 47.6451 58.3251Z" fill="#E6E6E5"/>
<path d="M94.4783 20.6587L11.3278 22.4556C6.69509 22.5539 3.1433 26.934 3.39599 32.4932L5.67028 82.1758C5.88086 86.8647 9.41854 90.992 13.6582 91.6939L27.3318 93.9541L34.5336 104.301L34.5195 71.0151C34.5195 68.9374 33.7474 66.9159 32.3997 65.3295C29.606 62.0726 25.0996 61.6654 22.4323 64.4451C21.1127 65.8209 20.509 67.688 20.5511 69.5691L20.9021 85.6574L13.4336 84.5623C12.8861 84.4781 12.6334 83.72 12.6193 83.1585C10.7382 29.3907 10.7242 32.1984 11.019 31.5386C11.1453 31.2719 11.3419 31.0472 11.6367 31.0472C98.353 31.2017 93.7764 31.0894 94.1414 31.3561C94.4503 31.5807 94.6047 32.0019 94.6608 32.395C94.731 32.8723 89.3262 94.5578 89.3683 94.0805C89.3121 94.7684 88.891 95.5545 88.1189 95.4422C87.3046 95.3159 41.0194 88.5774 39.6857 88.3809L39.6296 95.9616C40.4298 96.088 85.4655 103.514 87.4029 103.837C93.7062 104.876 99.3217 101.254 99.8972 95.5827L106.411 33.0969C107.127 26.0495 101.694 20.5043 94.4783 20.6587Z" fill="#E6E6E5"/>
<path d="M118.667 2.05791L19.7229 7.70137C16.2414 7.89791 13.5319 10.4951 12.479 13.9065C11.8473 15.9561 11.9877 17.4582 12.0579 19.213L17.4066 19.0727L17.3645 17.4441C17.3223 15.6612 18.1647 13.7099 19.8774 13.6397L114.455 9.73698C118.611 9.56852 121.629 12.6991 121.152 16.658C112.055 91.7925 112.757 87.0896 112.209 88.1004C111.746 88.9427 110.988 89.5744 110.033 89.8411C109.107 90.0938 108.994 89.9956 103.519 89.2797L102.902 95.0354C108.138 95.7935 109.64 96.1726 112.167 95.6391C116.238 94.7827 119.214 91.7364 119.776 87.4967L129.533 13.9345C130.459 6.71867 125.813 1.65079 118.667 2.05791Z" fill="#E6E6E5"/>
<path d="M23.9213 41.7611C20.1871 41.6347 17.253 44.8777 17.3372 49.0191C17.4214 53.1043 20.4117 57.1193 24.0898 57.4001C27.8521 57.6809 30.9125 53.9325 30.9125 49.7631C30.9125 45.5234 27.7538 41.8874 23.9213 41.7611Z" fill="#142E45"/>
<path d="M44.5567 36.1313C39.3624 36.033 35.4597 41.466 37.4953 47.2078C39.4887 52.7951 45.5675 54.929 49.6667 50.563C52.7271 47.3201 53.05 42.0977 49.9896 38.6864C48.5998 37.1281 46.6625 36.1734 44.5567 36.1313Z" fill="#3797EF"/>
<path d="M67.9592 43.2773C65.6428 43.1931 63.4949 44.0635 61.9085 45.5375C56.3072 50.7739 60.3222 60.1096 67.0186 60.615C71.6513 60.9659 75.7506 56.8526 76.0735 52.2059C76.3964 47.5029 72.7183 43.4458 67.9592 43.2773Z" fill="#142E45"/>
<path d="M66.6267 64.1388C61.8816 63.7457 57.9368 67.115 57.7403 71.7056L57.1506 86.2496L73.9268 88.566L74.9515 73.4885C75.2604 68.7856 71.4981 64.5459 66.6267 64.1388Z" fill="#142E45"/>
<path d="M44.2617 56.2901C39.9519 55.9953 36.4844 59.3504 36.4422 63.7866L36.2878 83.3705L51.4074 85.4622L52.0531 65.1764C52.2076 60.6279 48.6979 56.5989 44.2617 56.2901Z" fill="#3797EF"/>
<path d="M91.095 18.6237L7.94452 20.4066C3.31179 20.5049 -0.240005 24.8849 0.0126896 30.4442L2.28698 80.1267C2.49755 84.8016 6.03528 88.943 10.2749 89.6309L23.9485 91.8911L31.1503 102.238L31.1362 68.952C31.1362 66.8743 30.3641 64.8527 29.0164 63.2664C26.2087 60.0094 21.7164 59.6023 19.049 62.3819C17.7294 63.7577 17.1257 65.6249 17.1678 67.5061L17.5188 83.5942L10.0503 82.5133C9.50281 82.4291 9.25009 81.671 9.23605 81.1095C7.35488 27.3417 7.34086 30.1494 7.63567 29.4895C7.74798 29.2228 7.95856 28.9982 8.25337 28.9982C94.9697 29.1527 90.3931 29.0403 90.7581 29.307C91.067 29.5317 91.2214 29.9528 91.2916 30.3459C91.3618 30.8232 85.9569 92.5228 85.999 92.0314C85.9429 92.7193 85.5217 93.5055 84.7496 93.3932C83.9354 93.2669 37.6502 86.5283 36.3165 86.3318L36.2603 93.9126C37.0605 94.039 82.0963 101.465 84.0336 101.788C90.3369 102.827 95.9383 99.2051 96.528 93.5336L103.042 31.0478C103.744 24.0145 98.3109 18.4693 91.095 18.6237Z" fill="#142E45"/>
<path d="M115.284 0.0228214L16.3396 5.66636C12.8581 5.8629 10.1346 8.46001 9.09572 11.8714C8.46398 13.921 8.60438 15.4231 8.67458 17.1779L14.0233 17.0376L13.9812 15.4091C13.939 13.6262 14.7814 11.6748 16.4941 11.6047L111.072 7.70189C115.227 7.53342 118.246 10.6641 117.768 14.623C108.671 89.7575 109.373 85.0685 108.826 86.0653C108.363 86.9076 107.604 87.5393 106.65 87.806C105.723 88.0587 105.597 87.9605 100.136 87.2446L99.5182 93.0004C104.755 93.7584 106.257 94.1375 108.784 93.604C112.855 92.7476 115.831 89.7153 116.393 85.4616L126.149 11.8995C127.076 4.6977 122.429 -0.384298 115.284 0.0228214Z" fill="#3797EF"/>
</svg>
